# xmcd CD database file
#
# Track frame offsets:
#	150
#	12728
#	25970
#	37581
#	48643
#	60584
#	72378
#	83202
#	93022
#	107908
#	119604
#	130322
#	144555
#	157105
#	168991
#	179152
#	192772
#	205438
#	220316
#	235592
#	247379
#	260481
#	278483
#	289529
#	300561
#
# Disc length: 4194 seconds
#
# Revision: 0
# Processed by: cddbd v1.5.2PL0 Copyright (c) Steve Scherf et al.
# Submitted via: CDex 1.70beta2
#
DISCID=77106019
DTITLE=Etta James - The Anthology - Disc 2
DYEAR=2013
DGENRE=Jazz
TTITLE0=W-O-M-A-N
TTITLE1=All I Could Do Was Cry
TTITLE2=A Lover's Mourn
TTITLE3=Don't Get Around Much Anymore
TTITLE4=How Do You Speak To An Angel
TTITLE5=Anything To Say You're Mine
TTITLE6=Boy Of My Dreams
TTITLE7=Good Lookin'
TTITLE8=Crazy Feeling
TTITLE9=In My Diary
TTITLE10=Don't Blame Me
TTITLE11=Stormy Weather
TTITLE12=If I Can't Have You
TTITLE13=I'll Dry My Tears
TTITLE14=Prisoner Of Love
TTITLE15=Plum Nuts
TTITLE16=Something's Got A Hold On Me
TTITLE17=A Sunday Kind Of Love
TTITLE18=I Want To Be Loved
TTITLE19=You Can Count On Me
TTITLE20=It's A Crying Shame
TTITLE21=These Foolish Things
TTITLE22=Tough Mary
TTITLE23=Good Rockin' Daddy
TTITLE24=The Wallflower (Dance With Me Henry)
EXTD=YEAR: 2013
EXTT0=
EXTT1=
EXTT2=
EXTT3=
EXTT4=
EXTT5=
EXTT6=
EXTT7=
EXTT8=
EXTT9=
EXTT10=
EXTT11=
EXTT12=
EXTT13=
EXTT14=
EXTT15=
EXTT16=
EXTT17=
EXTT18=
EXTT19=
EXTT20=
EXTT21=
EXTT22=
EXTT23=
EXTT24=
PLAYORDER=
